<?xml version="1.0" standalone="no"?>
<!DOCTYPE svg PUBLIC "-//W3C//DTD SVG 20010904//EN"
 "http://www.w3.org/TR/2001/REC-SVG-20010904/DTD/svg10.dtd">
<svg version="1.0" xmlns="http://www.w3.org/2000/svg"
 width="512.000000pt" height="512.000000pt" viewBox="0 0 512.000000 512.000000"
 preserveAspectRatio="xMidYMid meet">
<metadata>
Created by potrace 1.16, written by Peter Selinger 2001-2019
</metadata>
<g transform="translate(0.000000,512.000000) scale(0.100000,-0.100000)"
fill="#000000" stroke="none">
<path d="M1326 4849 c-112 -12 -175 -26 -296 -65 -408 -130 -729 -440 -895
-859 -278 -702 -29 -1475 715 -2225 162 -163 288 -276 730 -650 184 -156 462
-393 618 -527 213 -182 293 -245 322 -253 78 -21 97 -9 402 253 156 134 434
371 618 527 441 373 568 486 730 650 425 427 687 860 784 1292 82 367 42 710
-124 1053 -188 390 -527 666 -941 769 -399 99 -781 17 -1114 -239 -71 -54
-253 -234 -293 -290 l-21 -30 -27 35 c-15 19 -81 89 -148 155 -166 165 -327
272 -514 339 -156 56 -385 83 -546 65z m314 -324 c287 -58 569 -280 775 -611
40 -65 85 -94 145 -94 60 0 105 29 145 94 144 233 347 430 545 531 154 78 342
114 505 96 461 -52 819 -353 970 -816 106 -327 64 -698 -121 -1063 -189 -374
-484 -708 -1053 -1192 -146 -124 -427 -363 -625 -532 -198 -170 -362 -308
-365 -308 -3 0 -96 77 -206 172 -110 94 -362 308 -560 476 -454 385 -574 493
-755 678 -397 407 -628 808 -691 1204 -15 96 -12 312 6 407 21 110 57 218 110
330 216 457 711 722 1175 628z"/>
</g>
</svg>
